<svg xmlns="http://www.w3.org/2000/svg" version="1.1" viewBox="0 0 256 256">
    <rect x="0" y="0" width="256" height="256" style="fill:#ffffff;shape-rendering:crispEdges;"></rect>
    <path x="0" y="0" style="fill:#000000;shape-rendering:crispEdges;"
          d="M0,0 V10.24 H10.24 V0 H0 Z M10.24,0 V10.24 H20.48 V0 H10.24 Z M20.48,0 V10.24 H30.72 V0 H20.48 Z M30.72,0 V10.24 H40.96 V0 H30.72 Z M40.96,0 V10.24 H51.20 V0 H40.96 Z M51.20,0 V10.24 H61.44 V0 H51.20 Z M61.44,0 V10.24 H71.68 V0 H61.44 Z M81.92,0 V10.24 H92.16 V0 H81.92 Z M102.40,0 V10.24 H112.64 V0 H102.40 Z M122.88,0 V10.24 H133.12 V0 H122.88 Z M133.12,0 V10.24 H143.36 V0 H133.12 Z M143.36,0 V10.24 H153.60 V0 H143.36 Z M153.60,0 V10.24 H163.84 V0 H153.60 Z M163.84,0 V10.24 H174.08 V0 H163.84 Z M184.32,0 V10.24 H194.56 V0 H184.32 Z M194.56,0 V10.24 H204.80 V0 H194.56 Z M204.80,0 V10.24 H215.04 V0 H204.80 Z M215.04,0 V10.24 H225.28 V0 H215.04 Z M225.28,0 V10.24 H235.52 V0 H225.28 Z M235.52,0 V10.24 H245.76 V0 H235.52 Z M245.76,0 V10.24 H256 V0 H245.76 Z M0,10.24 V20.48 H10.24 V10.24 H0 Z M61.44,10.24 V20.48 H71.68 V10.24 H61.44 Z M81.92,10.24 V20.48 H92.16 V10.24 H81.92 Z M92.16,10.24 V20.48 H102.40 V10.24 H92.16 Z M112.64,10.24 V20.48 H122.88 V10.24 H112.64 Z M122.88,10.24 V20.48 H133.12 V10.24 H122.88 Z M143.36,10.24 V20.48 H153.60 V10.24 H143.36 Z M184.32,10.24 V20.48 H194.56 V10.24 H184.32 Z M245.76,10.24 V20.48 H256 V10.24 H245.76 Z M0,20.48 V30.72 H10.24 V20.48 H0 Z M20.48,20.48 V30.72 H30.72 V20.48 H20.48 Z M30.72,20.48 V30.72 H40.96 V20.48 H30.72 Z M40.96,20.48 V30.72 H51.20 V20.48 H40.96 Z M61.44,20.48 V30.72 H71.68 V20.48 H61.44 Z M102.40,20.48 V30.72 H112.64 V20.48 H102.40 Z M112.64,20.48 V30.72 H122.88 V20.48 H112.64 Z M122.88,20.48 V30.72 H133.12 V20.48 H122.88 Z M133.12,20.48 V30.72 H143.36 V20.48 H133.12 Z M143.36,20.48 V30.72 H153.60 V20.48 H143.36 Z M153.60,20.48 V30.72 H163.84 V20.48 H153.60 Z M163.84,20.48 V30.72 H174.08 V20.48 H163.84 Z M184.32,20.48 V30.72 H194.56 V20.48 H184.32 Z M204.80,20.48 V30.72 H215.04 V20.48 H204.80 Z M215.04,20.48 V30.72 H225.28 V20.48 H215.04 Z M225.28,20.48 V30.72 H235.52 V20.48 H225.28 Z M245.76,20.48 V30.72 H256 V20.48 H245.76 Z M0,30.72 V40.96 H10.24 V30.72 H0 Z M20.48,30.72 V40.96 H30.72 V30.72 H20.48 Z M30.72,30.72 V40.96 H40.96 V30.72 H30.72 Z M40.96,30.72 V40.96 H51.20 V30.72 H40.96 Z M61.44,30.72 V40.96 H71.68 V30.72 H61.44 Z M81.92,30.72 V40.96 H92.16 V30.72 H81.92 Z M92.16,30.72 V40.96 H102.40 V30.72 H92.16 Z M112.64,30.72 V40.96 H122.88 V30.72 H112.64 Z M143.36,30.72 V40.96 H153.60 V30.72 H143.36 Z M184.32,30.72 V40.96 H194.56 V30.72 H184.32 Z M204.80,30.72 V40.96 H215.04 V30.72 H204.80 Z M215.04,30.72 V40.96 H225.28 V30.72 H215.04 Z M225.28,30.72 V40.96 H235.52 V30.72 H225.28 Z M245.76,30.72 V40.96 H256 V30.72 H245.76 Z M0,40.96 V51.20 H10.24 V40.96 H0 Z M20.48,40.96 V51.20 H30.72 V40.96 H20.48 Z M30.72,40.96 V51.20 H40.96 V40.96 H30.72 Z M40.96,40.96 V51.20 H51.20 V40.96 H40.96 Z M61.44,40.96 V51.20 H71.68 V40.96 H61.44 Z M81.92,40.96 V51.20 H92.16 V40.96 H81.92 Z M92.16,40.96 V51.20 H102.40 V40.96 H92.16 Z M102.40,40.96 V51.20 H112.64 V40.96 H102.40 Z M122.88,40.96 V51.20 H133.12 V40.96 H122.88 Z M133.12,40.96 V51.20 H143.36 V40.96 H133.12 Z M143.36,40.96 V51.20 H153.60 V40.96 H143.36 Z M184.32,40.96 V51.20 H194.56 V40.96 H184.32 Z M204.80,40.96 V51.20 H215.04 V40.96 H204.80 Z M215.04,40.96 V51.20 H225.28 V40.96 H215.04 Z M225.28,40.96 V51.20 H235.52 V40.96 H225.28 Z M245.76,40.96 V51.20 H256 V40.96 H245.76 Z M0,51.20 V61.44 H10.24 V51.20 H0 Z M61.44,51.20 V61.44 H71.68 V51.20 H61.44 Z M92.16,51.20 V61.44 H102.40 V51.20 H92.16 Z M122.88,51.20 V61.44 H133.12 V51.20 H122.88 Z M133.12,51.20 V61.44 H143.36 V51.20 H133.12 Z M143.36,51.20 V61.44 H153.60 V51.20 H143.36 Z M153.60,51.20 V61.44 H163.84 V51.20 H153.60 Z M163.84,51.20 V61.44 H174.08 V51.20 H163.84 Z M184.32,51.20 V61.44 H194.56 V51.20 H184.32 Z M245.76,51.20 V61.44 H256 V51.20 H245.76 Z M0,61.44 V71.68 H10.24 V61.44 H0 Z M10.24,61.44 V71.68 H20.48 V61.44 H10.24 Z M20.48,61.44 V71.68 H30.72 V61.44 H20.48 Z M30.72,61.44 V71.68 H40.96 V61.44 H30.72 Z M40.96,61.44 V71.68 H51.20 V61.44 H40.96 Z M51.20,61.44 V71.68 H61.44 V61.44 H51.20 Z M61.44,61.44 V71.68 H71.68 V61.44 H61.44 Z M81.92,61.44 V71.68 H92.16 V61.44 H81.92 Z M102.40,61.44 V71.68 H112.64 V61.44 H102.40 Z M122.88,61.44 V71.68 H133.12 V61.44 H122.88 Z M143.36,61.44 V71.68 H153.60 V61.44 H143.36 Z M163.84,61.44 V71.68 H174.08 V61.44 H163.84 Z M184.32,61.44 V71.68 H194.56 V61.44 H184.32 Z M194.56,61.44 V71.68 H204.80 V61.44 H194.56 Z M204.80,61.44 V71.68 H215.04 V61.44 H204.80 Z M215.04,61.44 V71.68 H225.28 V61.44 H215.04 Z M225.28,61.44 V71.68 H235.52 V61.44 H225.28 Z M235.52,61.44 V71.68 H245.76 V61.44 H235.52 Z M245.76,61.44 V71.68 H256 V61.44 H245.76 Z M92.16,71.68 V81.92 H102.40 V71.68 H92.16 Z M102.40,71.68 V81.92 H112.64 V71.68 H102.40 Z M153.60,71.68 V81.92 H163.84 V71.68 H153.60 Z M0,81.92 V92.16 H10.24 V81.92 H0 Z M61.44,81.92 V92.16 H71.68 V81.92 H61.44 Z M71.68,81.92 V92.16 H81.92 V81.92 H71.68 Z M122.88,81.92 V92.16 H133.12 V81.92 H122.88 Z M133.12,81.92 V92.16 H143.36 V81.92 H133.12 Z M163.84,81.92 V92.16 H174.08 V81.92 H163.84 Z M174.08,81.92 V92.16 H184.32 V81.92 H174.08 Z M204.80,81.92 V92.16 H215.04 V81.92 H204.80 Z M215.04,81.92 V92.16 H225.28 V81.92 H215.04 Z M235.52,81.92 V92.16 H245.76 V81.92 H235.52 Z M245.76,81.92 V92.16 H256 V81.92 H245.76 Z M0,92.16 V102.40 H10.24 V92.16 H0 Z M20.48,92.16 V102.40 H30.72 V92.16 H20.48 Z M51.20,92.16 V102.40 H61.44 V92.16 H51.20 Z M71.68,92.16 V102.40 H81.92 V92.16 H71.68 Z M81.92,92.16 V102.40 H92.16 V92.16 H81.92 Z M102.40,92.16 V102.40 H112.64 V92.16 H102.40 Z M122.88,92.16 V102.40 H133.12 V92.16 H122.88 Z M133.12,92.16 V102.40 H143.36 V92.16 H133.12 Z M143.36,92.16 V102.40 H153.60 V92.16 H143.36 Z M153.60,92.16 V102.40 H163.84 V92.16 H153.60 Z M163.84,92.16 V102.40 H174.08 V92.16 H163.84 Z M194.56,92.16 V102.40 H204.80 V92.16 H194.56 Z M215.04,92.16 V102.40 H225.28 V92.16 H215.04 Z M225.28,92.16 V102.40 H235.52 V92.16 H225.28 Z M245.76,92.16 V102.40 H256 V92.16 H245.76 Z M0,102.40 V112.64 H10.24 V102.40 H0 Z M30.72,102.40 V112.64 H40.96 V102.40 H30.72 Z M40.96,102.40 V112.64 H51.20 V102.40 H40.96 Z M61.44,102.40 V112.64 H71.68 V102.40 H61.44 Z M92.16,102.40 V112.64 H102.40 V102.40 H92.16 Z M122.88,102.40 V112.64 H133.12 V102.40 H122.88 Z M133.12,102.40 V112.64 H143.36 V102.40 H133.12 Z M143.36,102.40 V112.64 H153.60 V102.40 H143.36 Z M153.60,102.40 V112.64 H163.84 V102.40 H153.60 Z M174.08,102.40 V112.64 H184.32 V102.40 H174.08 Z M184.32,102.40 V112.64 H194.56 V102.40 H184.32 Z M204.80,102.40 V112.64 H215.04 V102.40 H204.80 Z M215.04,102.40 V112.64 H225.28 V102.40 H215.04 Z M225.28,102.40 V112.64 H235.52 V102.40 H225.28 Z M245.76,102.40 V112.64 H256 V102.40 H245.76 Z M0,112.64 V122.88 H10.24 V112.64 H0 Z M10.24,112.64 V122.88 H20.48 V112.64 H10.24 Z M20.48,112.64 V122.88 H30.72 V112.64 H20.48 Z M30.72,112.64 V122.88 H40.96 V112.64 H30.72 Z M40.96,112.64 V122.88 H51.20 V112.64 H40.96 Z M51.20,112.64 V122.88 H61.44 V112.64 H51.20 Z M71.68,112.64 V122.88 H81.92 V112.64 H71.68 Z M81.92,112.64 V122.88 H92.16 V112.64 H81.92 Z M92.16,112.64 V122.88 H102.40 V112.64 H92.16 Z M102.40,112.64 V122.88 H112.64 V112.64 H102.40 Z M112.64,112.64 V122.88 H122.88 V112.64 H112.64 Z M122.88,112.64 V122.88 H133.12 V112.64 H122.88 Z M133.12,112.64 V122.88 H143.36 V112.64 H133.12 Z M153.60,112.64 V122.88 H163.84 V112.64 H153.60 Z M163.84,112.64 V122.88 H174.08 V112.64 H163.84 Z M184.32,112.64 V122.88 H194.56 V112.64 H184.32 Z M215.04,112.64 V122.88 H225.28 V112.64 H215.04 Z M225.28,112.64 V122.88 H235.52 V112.64 H225.28 Z M245.76,112.64 V122.88 H256 V112.64 H245.76 Z M10.24,122.88 V133.12 H20.48 V122.88 H10.24 Z M30.72,122.88 V133.12 H40.96 V122.88 H30.72 Z M40.96,122.88 V133.12 H51.20 V122.88 H40.96 Z M61.44,122.88 V133.12 H71.68 V122.88 H61.44 Z M81.92,122.88 V133.12 H92.16 V122.88 H81.92 Z M92.16,122.88 V133.12 H102.40 V122.88 H92.16 Z M102.40,122.88 V133.12 H112.64 V122.88 H102.40 Z M122.88,122.88 V133.12 H133.12 V122.88 H122.88 Z M143.36,122.88 V133.12 H153.60 V122.88 H143.36 Z M153.60,122.88 V133.12 H163.84 V122.88 H153.60 Z M194.56,122.88 V133.12 H204.80 V122.88 H194.56 Z M204.80,122.88 V133.12 H215.04 V122.88 H204.80 Z M235.52,122.88 V133.12 H245.76 V122.88 H235.52 Z M245.76,122.88 V133.12 H256 V122.88 H245.76 Z M0,133.12 V143.36 H10.24 V133.12 H0 Z M20.48,133.12 V143.36 H30.72 V133.12 H20.48 Z M30.72,133.12 V143.36 H40.96 V133.12 H30.72 Z M71.68,133.12 V143.36 H81.92 V133.12 H71.68 Z M133.12,133.12 V143.36 H143.36 V133.12 H133.12 Z M143.36,133.12 V143.36 H153.60 V133.12 H143.36 Z M163.84,133.12 V143.36 H174.08 V133.12 H163.84 Z M174.08,133.12 V143.36 H184.32 V133.12 H174.08 Z M194.56,133.12 V143.36 H204.80 V133.12 H194.56 Z M225.28,133.12 V143.36 H235.52 V133.12 H225.28 Z M10.24,143.36 V153.60 H20.48 V143.36 H10.24 Z M20.48,143.36 V153.60 H30.72 V143.36 H20.48 Z M30.72,143.36 V153.60 H40.96 V143.36 H30.72 Z M61.44,143.36 V153.60 H71.68 V143.36 H61.44 Z M71.68,143.36 V153.60 H81.92 V143.36 H71.68 Z M102.40,143.36 V153.60 H112.64 V143.36 H102.40 Z M122.88,143.36 V153.60 H133.12 V143.36 H122.88 Z M153.60,143.36 V153.60 H163.84 V143.36 H153.60 Z M163.84,143.36 V153.60 H174.08 V143.36 H163.84 Z M204.80,143.36 V153.60 H215.04 V143.36 H204.80 Z M30.72,153.60 V163.84 H40.96 V153.60 H30.72 Z M81.92,153.60 V163.84 H92.16 V153.60 H81.92 Z M92.16,153.60 V163.84 H102.40 V153.60 H92.16 Z M102.40,153.60 V163.84 H112.64 V153.60 H102.40 Z M112.64,153.60 V163.84 H122.88 V153.60 H112.64 Z M122.88,153.60 V163.84 H133.12 V153.60 H122.88 Z M133.12,153.60 V163.84 H143.36 V153.60 H133.12 Z M143.36,153.60 V163.84 H153.60 V153.60 H143.36 Z M153.60,153.60 V163.84 H163.84 V153.60 H153.60 Z M194.56,153.60 V163.84 H204.80 V153.60 H194.56 Z M204.80,153.60 V163.84 H215.04 V153.60 H204.80 Z M225.28,153.60 V163.84 H235.52 V153.60 H225.28 Z M0,163.84 V174.08 H10.24 V163.84 H0 Z M20.48,163.84 V174.08 H30.72 V163.84 H20.48 Z M51.20,163.84 V174.08 H61.44 V163.84 H51.20 Z M61.44,163.84 V174.08 H71.68 V163.84 H61.44 Z M71.68,163.84 V174.08 H81.92 V163.84 H71.68 Z M102.40,163.84 V174.08 H112.64 V163.84 H102.40 Z M112.64,163.84 V174.08 H122.88 V163.84 H112.64 Z M133.12,163.84 V174.08 H143.36 V163.84 H133.12 Z M163.84,163.84 V174.08 H174.08 V163.84 H163.84 Z M174.08,163.84 V174.08 H184.32 V163.84 H174.08 Z M184.32,163.84 V174.08 H194.56 V163.84 H184.32 Z M194.56,163.84 V174.08 H204.80 V163.84 H194.56 Z M204.80,163.84 V174.08 H215.04 V163.84 H204.80 Z M215.04,163.84 V174.08 H225.28 V163.84 H215.04 Z M225.28,163.84 V174.08 H235.52 V163.84 H225.28 Z M245.76,163.84 V174.08 H256 V163.84 H245.76 Z M102.40,174.08 V184.32 H112.64 V174.08 H102.40 Z M153.60,174.08 V184.32 H163.84 V174.08 H153.60 Z M163.84,174.08 V184.32 H174.08 V174.08 H163.84 Z M204.80,174.08 V184.32 H215.04 V174.08 H204.80 Z M215.04,174.08 V184.32 H225.28 V174.08 H215.04 Z M225.28,174.08 V184.32 H235.52 V174.08 H225.28 Z M245.76,174.08 V184.32 H256 V174.08 H245.76 Z M0,184.32 V194.56 H10.24 V184.32 H0 Z M10.24,184.32 V194.56 H20.48 V184.32 H10.24 Z M20.48,184.32 V194.56 H30.72 V184.32 H20.48 Z M30.72,184.32 V194.56 H40.96 V184.32 H30.72 Z M40.96,184.32 V194.56 H51.20 V184.32 H40.96 Z M51.20,184.32 V194.56 H61.44 V184.32 H51.20 Z M61.44,184.32 V194.56 H71.68 V184.32 H61.44 Z M81.92,184.32 V194.56 H92.16 V184.32 H81.92 Z M102.40,184.32 V194.56 H112.64 V184.32 H102.40 Z M122.88,184.32 V194.56 H133.12 V184.32 H122.88 Z M143.36,184.32 V194.56 H153.60 V184.32 H143.36 Z M153.60,184.32 V194.56 H163.84 V184.32 H153.60 Z M163.84,184.32 V194.56 H174.08 V184.32 H163.84 Z M184.32,184.32 V194.56 H194.56 V184.32 H184.32 Z M204.80,184.32 V194.56 H215.04 V184.32 H204.80 Z M215.04,184.32 V194.56 H225.28 V184.32 H215.04 Z M245.76,184.32 V194.56 H256 V184.32 H245.76 Z M0,194.56 V204.80 H10.24 V194.56 H0 Z M61.44,194.56 V204.80 H71.68 V194.56 H61.44 Z M92.16,194.56 V204.80 H102.40 V194.56 H92.16 Z M102.40,194.56 V204.80 H112.64 V194.56 H102.40 Z M112.64,194.56 V204.80 H122.88 V194.56 H112.64 Z M122.88,194.56 V204.80 H133.12 V194.56 H122.88 Z M143.36,194.56 V204.80 H153.60 V194.56 H143.36 Z M153.60,194.56 V204.80 H163.84 V194.56 H153.60 Z M163.84,194.56 V204.80 H174.08 V194.56 H163.84 Z M204.80,194.56 V204.80 H215.04 V194.56 H204.80 Z M225.28,194.56 V204.80 H235.52 V194.56 H225.28 Z M235.52,194.56 V204.80 H245.76 V194.56 H235.52 Z M0,204.80 V215.04 H10.24 V204.80 H0 Z M20.48,204.80 V215.04 H30.72 V204.80 H20.48 Z M30.72,204.80 V215.04 H40.96 V204.80 H30.72 Z M40.96,204.80 V215.04 H51.20 V204.80 H40.96 Z M61.44,204.80 V215.04 H71.68 V204.80 H61.44 Z M92.16,204.80 V215.04 H102.40 V204.80 H92.16 Z M112.64,204.80 V215.04 H122.88 V204.80 H112.64 Z M133.12,204.80 V215.04 H143.36 V204.80 H133.12 Z M163.84,204.80 V215.04 H174.08 V204.80 H163.84 Z M174.08,204.80 V215.04 H184.32 V204.80 H174.08 Z M184.32,204.80 V215.04 H194.56 V204.80 H184.32 Z M194.56,204.80 V215.04 H204.80 V204.80 H194.56 Z M204.80,204.80 V215.04 H215.04 V204.80 H204.80 Z M225.28,204.80 V215.04 H235.52 V204.80 H225.28 Z M235.52,204.80 V215.04 H245.76 V204.80 H235.52 Z M0,215.04 V225.28 H10.24 V215.04 H0 Z M20.48,215.04 V225.28 H30.72 V215.04 H20.48 Z M30.72,215.04 V225.28 H40.96 V215.04 H30.72 Z M40.96,215.04 V225.28 H51.20 V215.04 H40.96 Z M61.44,215.04 V225.28 H71.68 V215.04 H61.44 Z M92.16,215.04 V225.28 H102.40 V215.04 H92.16 Z M102.40,215.04 V225.28 H112.64 V215.04 H102.40 Z M112.64,215.04 V225.28 H122.88 V215.04 H112.64 Z M143.36,215.04 V225.28 H153.60 V215.04 H143.36 Z M184.32,215.04 V225.28 H194.56 V215.04 H184.32 Z M204.80,215.04 V225.28 H215.04 V215.04 H204.80 Z M215.04,215.04 V225.28 H225.28 V215.04 H215.04 Z M245.76,215.04 V225.28 H256 V215.04 H245.76 Z M0,225.28 V235.52 H10.24 V225.28 H0 Z M20.48,225.28 V235.52 H30.72 V225.28 H20.48 Z M30.72,225.28 V235.52 H40.96 V225.28 H30.72 Z M40.96,225.28 V235.52 H51.20 V225.28 H40.96 Z M61.44,225.28 V235.52 H71.68 V225.28 H61.44 Z M92.16,225.28 V235.52 H102.40 V225.28 H92.16 Z M112.64,225.28 V235.52 H122.88 V225.28 H112.64 Z M143.36,225.28 V235.52 H153.60 V225.28 H143.36 Z M153.60,225.28 V235.52 H163.84 V225.28 H153.60 Z M163.84,225.28 V235.52 H174.08 V225.28 H163.84 Z M225.28,225.28 V235.52 H235.52 V225.28 H225.28 Z M235.52,225.28 V235.52 H245.76 V225.28 H235.52 Z M0,235.52 V245.76 H10.24 V235.52 H0 Z M61.44,235.52 V245.76 H71.68 V235.52 H61.44 Z M92.16,235.52 V245.76 H102.40 V235.52 H92.16 Z M112.64,235.52 V245.76 H122.88 V235.52 H112.64 Z M133.12,235.52 V245.76 H143.36 V235.52 H133.12 Z M143.36,235.52 V245.76 H153.60 V235.52 H143.36 Z M163.84,235.52 V245.76 H174.08 V235.52 H163.84 Z M174.08,235.52 V245.76 H184.32 V235.52 H174.08 Z M204.80,235.52 V245.76 H215.04 V235.52 H204.80 Z M215.04,235.52 V245.76 H225.28 V235.52 H215.04 Z M225.28,235.52 V245.76 H235.52 V235.52 H225.28 Z M235.52,235.52 V245.76 H245.76 V235.52 H235.52 Z M0,245.76 V256 H10.24 V245.76 H0 Z M10.24,245.76 V256 H20.48 V245.76 H10.24 Z M20.48,245.76 V256 H30.72 V245.76 H20.48 Z M30.72,245.76 V256 H40.96 V245.76 H30.72 Z M40.96,245.76 V256 H51.20 V245.76 H40.96 Z M51.20,245.76 V256 H61.44 V245.76 H51.20 Z M61.44,245.76 V256 H71.68 V245.76 H61.44 Z M81.92,245.76 V256 H92.16 V245.76 H81.92 Z M102.40,245.76 V256 H112.64 V245.76 H102.40 Z M112.64,245.76 V256 H122.88 V245.76 H112.64 Z M122.88,245.76 V256 H133.12 V245.76 H122.88 Z M143.36,245.76 V256 H153.60 V245.76 H143.36 Z M153.60,245.76 V256 H163.84 V245.76 H153.60 Z M184.32,245.76 V256 H194.56 V245.76 H184.32 Z M194.56,245.76 V256 H204.80 V245.76 H194.56 Z M215.04,245.76 V256 H225.28 V245.76 H215.04 Z M225.28,245.76 V256 H235.52 V245.76 H225.28 Z M235.52,245.76 V256 H245.76 V245.76 H235.52 Z M245.76,245.76 V256 H256 V245.76 H245.76 Z "></path>
</svg>